<svg xmlns="http://www.w3.org/2000/svg" xmlns:xlink="http://www.w3.org/1999/xlink" width="1080" zoomAndPan="magnify" viewBox="0 0 810 809.999993" height="1080" preserveAspectRatio="xMidYMid meet" version="1.0"><defs><clipPath id="e5954df220"><path d="M 23 22.851562 L 810 22.851562 L 810 810 L 23 810 Z M 23 22.851562 " clip-rule="nonzero"/></clipPath></defs><g clip-path="url(#e5954df220)"><path fill="#d9d9d9" d="M 416.78125 22.851562 C 410.335938 22.851562 403.898438 23.011719 397.460938 23.332031 C 391.023438 23.652344 384.597656 24.125 378.183594 24.761719 C 371.773438 25.394531 365.378906 26.183594 359.003906 27.132812 C 352.628906 28.082031 346.28125 29.183594 339.960938 30.445312 C 333.640625 31.703125 327.355469 33.117188 321.105469 34.683594 C 314.851562 36.253906 308.644531 37.972656 302.476562 39.847656 C 296.3125 41.71875 290.195312 43.742188 284.128906 45.914062 C 278.058594 48.089844 272.050781 50.410156 266.097656 52.878906 C 260.144531 55.34375 254.253906 57.957031 248.429688 60.714844 C 242.605469 63.472656 236.851562 66.371094 231.167969 69.410156 C 225.484375 72.453125 219.882812 75.628906 214.355469 78.945312 C 208.828125 82.257812 203.386719 85.707031 198.027344 89.289062 C 192.671875 92.871094 187.40625 96.582031 182.230469 100.425781 C 177.054688 104.265625 171.976562 108.230469 166.996094 112.320312 C 162.015625 116.410156 157.140625 120.621094 152.367188 124.949219 C 147.59375 129.277344 142.925781 133.722656 138.371094 138.28125 C 133.816406 142.839844 129.375 147.507812 125.050781 152.285156 C 120.722656 157.0625 116.515625 161.941406 112.429688 166.921875 C 108.34375 171.90625 104.378906 176.988281 100.542969 182.164062 C 96.707031 187.34375 92.996094 192.609375 89.417969 197.96875 C 85.839844 203.332031 82.394531 208.773438 79.082031 214.304688 C 75.773438 219.832031 72.597656 225.4375 69.5625 231.125 C 66.527344 236.808594 63.632812 242.5625 60.878906 248.390625 C 58.125 254.21875 55.515625 260.109375 53.050781 266.0625 C 50.585938 272.015625 48.269531 278.027344 46.101562 284.097656 C 43.929688 290.164062 41.914062 296.285156 40.042969 302.453125 C 38.175781 308.621094 36.457031 314.828125 34.894531 321.082031 C 33.332031 327.332031 31.921875 333.621094 30.664062 339.941406 C 29.410156 346.261719 28.3125 352.609375 27.367188 358.984375 C 26.421875 365.359375 25.636719 371.753906 25.007812 378.167969 C 24.378906 384.582031 23.90625 391.007812 23.589844 397.445312 C 23.277344 403.882812 23.121094 410.324219 23.121094 416.765625 C 23.125 423.210938 23.285156 429.652344 23.601562 436.089844 C 23.921875 442.527344 24.398438 448.949219 25.03125 455.363281 C 25.664062 461.777344 26.453125 468.171875 27.402344 474.546875 C 28.351562 480.921875 29.453125 487.269531 30.710938 493.589844 C 31.972656 499.910156 33.386719 506.195312 34.953125 512.445312 C 36.519531 518.695312 38.242188 524.90625 40.113281 531.070312 C 41.988281 537.238281 44.007812 543.355469 46.183594 549.421875 C 48.355469 555.488281 50.675781 561.5 53.144531 567.453125 C 55.613281 573.40625 58.222656 579.296875 60.980469 585.121094 C 63.738281 590.945312 66.636719 596.699219 69.675781 602.382812 C 72.714844 608.066406 75.894531 613.667969 79.207031 619.195312 C 82.523438 624.722656 85.972656 630.164062 89.554688 635.523438 C 93.136719 640.878906 96.847656 646.148438 100.6875 651.320312 C 104.527344 656.496094 108.492188 661.574219 112.582031 666.554688 C 116.671875 671.535156 120.882812 676.414062 125.210938 681.1875 C 129.539062 685.960938 133.984375 690.625 138.542969 695.183594 C 143.101562 699.738281 147.769531 704.179688 152.542969 708.503906 C 157.320312 712.832031 162.199219 717.039062 167.183594 721.125 C 172.167969 725.210938 177.246094 729.175781 182.425781 733.011719 C 187.601562 736.851562 192.871094 740.558594 198.230469 744.136719 C 203.589844 747.714844 209.035156 751.160156 214.5625 754.472656 C 220.089844 757.785156 225.695312 760.957031 231.382812 763.996094 C 237.066406 767.03125 242.820312 769.925781 248.648438 772.679688 C 254.476562 775.433594 260.367188 778.042969 266.320312 780.507812 C 272.273438 782.972656 278.285156 785.289062 284.355469 787.457031 C 290.421875 789.628906 296.542969 791.648438 302.710938 793.515625 C 308.875 795.386719 315.085938 797.101562 321.339844 798.667969 C 327.589844 800.230469 333.875 801.640625 340.199219 802.894531 C 346.519531 804.152344 352.867188 805.25 359.242188 806.195312 C 365.617188 807.140625 372.011719 807.925781 378.425781 808.554688 C 384.839844 809.1875 391.265625 809.65625 397.703125 809.972656 C 404.136719 810.285156 410.578125 810.441406 417.023438 810.441406 C 423.46875 810.441406 429.910156 810.28125 436.347656 809.960938 C 442.78125 809.644531 449.207031 809.167969 455.621094 808.535156 C 462.035156 807.902344 468.429688 807.109375 474.804688 806.164062 C 481.175781 805.214844 487.523438 804.113281 493.84375 802.855469 C 500.167969 801.59375 506.453125 800.183594 512.703125 798.613281 C 518.953125 797.046875 525.164062 795.328125 531.328125 793.453125 C 537.496094 791.582031 543.613281 789.558594 549.679688 787.386719 C 555.746094 785.214844 561.757812 782.894531 567.710938 780.425781 C 573.664062 777.957031 579.554688 775.347656 585.378906 772.589844 C 591.203125 769.832031 596.957031 766.933594 602.640625 763.894531 C 608.324219 760.855469 613.929688 757.679688 619.457031 754.363281 C 624.980469 751.050781 630.425781 747.601562 635.78125 744.019531 C 641.140625 740.4375 646.40625 736.726562 651.582031 732.886719 C 656.757812 729.046875 661.835938 725.082031 666.816406 720.992188 C 671.796875 716.902344 676.675781 712.691406 681.449219 708.363281 C 686.222656 704.035156 690.886719 699.589844 695.441406 695.03125 C 700 690.472656 704.441406 685.804688 708.765625 681.03125 C 713.09375 676.253906 717.300781 671.375 721.386719 666.390625 C 725.476562 661.410156 729.4375 656.328125 733.273438 651.152344 C 737.113281 645.972656 740.820312 640.707031 744.398438 635.347656 C 747.980469 629.988281 751.425781 624.542969 754.738281 619.015625 C 758.046875 613.488281 761.222656 607.878906 764.257812 602.195312 C 767.296875 596.511719 770.191406 590.757812 772.945312 584.929688 C 775.699219 579.101562 778.308594 573.210938 780.773438 567.257812 C 783.238281 561.304688 785.554688 555.292969 787.726562 549.222656 C 789.894531 543.15625 791.914062 537.035156 793.785156 530.871094 C 795.652344 524.703125 797.371094 518.492188 798.933594 512.242188 C 800.5 505.988281 801.910156 499.703125 803.164062 493.382812 C 804.421875 487.058594 805.519531 480.710938 806.464844 474.335938 C 807.410156 467.960938 808.195312 461.566406 808.824219 455.152344 C 809.457031 448.738281 809.929688 442.316406 810.242188 435.878906 C 810.558594 429.441406 810.714844 423 810.714844 416.554688 C 810.699219 410.113281 810.527344 403.675781 810.199219 397.242188 C 809.871094 390.808594 809.386719 384.386719 808.742188 377.976562 C 808.097656 371.566406 807.300781 365.175781 806.34375 358.804688 C 805.386719 352.4375 804.273438 346.09375 803.007812 339.777344 C 801.742188 333.460938 800.320312 327.179688 798.746094 320.933594 C 797.171875 314.6875 795.445312 308.480469 793.566406 302.320312 C 791.6875 296.15625 789.660156 290.046875 787.480469 283.984375 C 785.300781 277.921875 782.976562 271.914062 780.503906 265.964844 C 778.03125 260.015625 775.417969 254.132812 772.65625 248.3125 C 769.894531 242.492188 766.996094 236.742188 763.953125 231.0625 C 760.910156 225.382812 757.730469 219.785156 754.414062 214.261719 C 751.097656 208.738281 747.648438 203.300781 744.066406 197.945312 C 740.480469 192.59375 736.769531 187.332031 732.929688 182.160156 C 729.089844 176.988281 725.125 171.910156 721.035156 166.933594 C 716.945312 161.957031 712.738281 157.082031 708.410156 152.308594 C 704.082031 147.539062 699.636719 142.875 695.082031 138.324219 C 690.523438 133.769531 685.859375 129.328125 681.085938 125.003906 C 676.3125 120.679688 671.433594 116.472656 666.457031 112.386719 C 661.476562 108.300781 656.398438 104.335938 651.222656 100.5 C 646.050781 96.660156 640.785156 92.953125 635.429688 89.375 C 630.074219 85.792969 624.632812 82.347656 619.109375 79.035156 C 613.585938 75.71875 607.980469 72.542969 602.300781 69.503906 C 596.621094 66.464844 590.871094 63.570312 585.046875 60.8125 C 579.226562 58.054688 573.339844 55.441406 567.390625 52.972656 C 561.4375 50.503906 555.433594 48.183594 549.367188 46.007812 C 543.304688 43.832031 537.191406 41.808594 531.027344 39.933594 C 524.863281 38.058594 518.660156 36.335938 512.414062 34.761719 C 506.164062 33.191406 499.882812 31.773438 493.566406 30.511719 C 487.25 29.25 480.90625 28.140625 474.535156 27.1875 C 468.164062 26.234375 461.773438 25.4375 455.363281 24.800781 C 448.953125 24.160156 442.53125 23.679688 436.097656 23.351562 C 429.664062 23.027344 423.222656 22.859375 416.78125 22.851562 Z M 525.527344 748.820312 C 508.445312 752.308594 502.148438 741.796875 502.148438 732.734375 C 502.148438 721.179688 502.644531 684.476562 502.644531 638.757812 C 502.644531 607.042969 491.863281 586.289062 479.539062 575.730469 C 555.433594 567.167969 635.316406 538.304688 635.316406 407.132812 C 635.378906 402.9375 635.246094 398.75 634.910156 394.566406 C 634.574219 390.386719 634.042969 386.230469 633.308594 382.097656 C 632.578125 377.96875 631.648438 373.882812 630.527344 369.839844 C 629.40625 365.796875 628.09375 361.820312 626.589844 357.902344 C 625.089844 353.984375 623.402344 350.148438 621.535156 346.394531 C 619.664062 342.636719 617.621094 338.980469 615.402344 335.417969 C 613.1875 331.859375 610.804688 328.414062 608.253906 325.078125 C 605.707031 321.746094 603.007812 318.542969 600.15625 315.46875 C 603.644531 306.902344 615.695312 271.96875 596.847656 224.847656 C 596.847656 224.847656 568.210938 215.511719 502.917969 259.734375 C 489.011719 255.992188 474.917969 253.175781 460.640625 251.285156 C 446.363281 249.398438 432.023438 248.453125 417.621094 248.453125 C 403.21875 248.453125 388.878906 249.398438 374.601562 251.285156 C 360.320312 253.175781 346.230469 255.992188 332.324219 259.734375 C 267.03125 216.054688 238.347656 224.847656 238.347656 224.847656 C 219.769531 271.789062 231.597656 306.722656 235.085938 315.46875 C 232.253906 318.554688 229.570312 321.765625 227.042969 325.105469 C 224.511719 328.445312 222.148438 331.898438 219.945312 335.460938 C 217.746094 339.027344 215.71875 342.6875 213.863281 346.445312 C 212.007812 350.199219 210.335938 354.035156 208.847656 357.953125 C 207.355469 361.867188 206.054688 365.84375 204.941406 369.882812 C 203.828125 373.921875 202.910156 378.003906 202.183594 382.128906 C 201.457031 386.257812 200.929688 390.40625 200.597656 394.582031 C 200.265625 398.757812 200.132812 402.941406 200.195312 407.132812 C 200.195312 537.761719 279.582031 567.167969 355.429688 575.730469 C 345.644531 584.25 336.582031 599.066406 333.589844 621.449219 C 313.972656 630.242188 264.992188 644.785156 234.359375 593.3125 C 227.835938 582.980469 208.714844 557.878906 181.847656 558.152344 C 153.210938 558.648438 170.292969 574.464844 182.117188 580.808594 C 196.664062 589.097656 213.246094 619.230469 217.277344 629.019531 C 224.03125 648.367188 246.140625 685.023438 331.824219 669.207031 C 331.824219 697.84375 332.324219 724.757812 332.324219 732.644531 C 332.324219 741.707031 326.070312 751.71875 308.941406 748.726562 C 302.613281 746.609375 296.351562 744.304688 290.160156 741.816406 C 283.964844 739.328125 277.851562 736.660156 271.816406 733.8125 C 265.777344 730.96875 259.828125 727.945312 253.972656 724.75 C 248.113281 721.554688 242.351562 718.1875 236.691406 714.652344 C 231.027344 711.117188 225.476562 707.421875 220.03125 703.558594 C 214.585938 699.699219 209.261719 695.683594 204.050781 691.507812 C 198.84375 687.335938 193.761719 683.011719 188.808594 678.539062 C 183.851562 674.066406 179.035156 669.453125 174.351562 664.699219 C 169.667969 659.945312 165.125 655.054688 160.730469 650.035156 C 156.332031 645.011719 152.089844 639.867188 147.996094 634.59375 C 143.898438 629.324219 139.964844 623.9375 136.1875 618.433594 C 132.410156 612.933594 128.796875 607.324219 125.347656 601.609375 C 121.898438 595.894531 118.621094 590.085938 115.511719 584.179688 C 112.40625 578.273438 109.476562 572.277344 106.71875 566.199219 C 103.964844 560.121094 101.390625 553.964844 98.996094 547.734375 C 96.601562 541.503906 94.394531 535.210938 92.371094 528.851562 C 90.347656 522.488281 88.511719 516.074219 86.863281 509.609375 C 85.214844 503.140625 83.761719 496.628906 82.496094 490.078125 C 81.230469 483.523438 80.160156 476.9375 79.28125 470.320312 C 78.402344 463.707031 77.71875 457.070312 77.230469 450.414062 C 76.742188 443.757812 76.449219 437.089844 76.351562 430.417969 C 76.257812 423.746094 76.355469 417.074219 76.648438 410.40625 C 76.945312 403.738281 77.433594 397.085938 78.121094 390.445312 C 78.804688 383.808594 79.6875 377.195312 80.761719 370.605469 C 81.835938 364.019531 83.101562 357.46875 84.558594 350.957031 C 86.019531 344.441406 87.667969 337.976562 89.503906 331.5625 C 91.34375 325.144531 93.367188 318.789062 95.582031 312.492188 C 97.792969 306.195312 100.1875 299.96875 102.765625 293.8125 C 105.34375 287.65625 108.097656 281.578125 111.03125 275.585938 C 113.964844 269.589844 117.074219 263.6875 120.355469 257.875 C 123.636719 252.0625 127.085938 246.351562 130.703125 240.742188 C 134.316406 235.132812 138.097656 229.632812 142.035156 224.246094 C 145.972656 218.859375 150.070312 213.589844 154.316406 208.445312 C 158.566406 203.296875 162.960938 198.277344 167.503906 193.390625 C 172.050781 188.5 176.730469 183.75 181.554688 179.136719 C 186.378906 174.519531 191.332031 170.050781 196.417969 165.730469 C 201.5 161.40625 206.707031 157.234375 212.039062 153.21875 C 217.367188 149.203125 222.8125 145.34375 228.367188 141.648438 C 233.925781 137.949219 239.585938 134.417969 245.347656 131.054688 C 251.113281 127.6875 256.96875 124.496094 262.921875 121.472656 C 268.875 118.453125 274.910156 115.609375 281.027344 112.941406 C 287.144531 110.277344 293.335938 107.789062 299.601562 105.488281 C 305.867188 103.183594 312.191406 101.066406 318.582031 99.136719 C 324.96875 97.203125 331.410156 95.460938 337.898438 93.910156 C 344.390625 92.355469 350.921875 90.996094 357.492188 89.824219 C 364.066406 88.65625 370.664062 87.679688 377.292969 86.898438 C 383.921875 86.117188 390.566406 85.527344 397.230469 85.136719 C 403.890625 84.746094 410.558594 84.550781 417.234375 84.550781 C 423.910156 84.550781 430.578125 84.746094 437.242188 85.136719 C 443.902344 85.527344 450.546875 86.117188 457.175781 86.898438 C 463.804688 87.679688 470.40625 88.65625 476.976562 89.824219 C 483.546875 90.996094 490.078125 92.355469 496.570312 93.910156 C 503.058594 95.460938 509.5 97.203125 515.890625 99.136719 C 522.277344 101.066406 528.605469 103.183594 534.867188 105.488281 C 541.132812 107.789062 547.324219 110.277344 553.441406 112.941406 C 559.5625 115.609375 565.597656 118.453125 571.546875 121.472656 C 577.5 124.496094 583.355469 127.6875 589.121094 131.054688 C 594.882812 134.417969 600.542969 137.949219 606.101562 141.648438 C 611.65625 145.34375 617.101562 149.203125 622.429688 153.21875 C 627.761719 157.234375 632.96875 161.40625 638.054688 165.730469 C 643.136719 170.050781 648.09375 174.519531 652.914062 179.136719 C 657.738281 183.75 662.421875 188.5 666.964844 193.390625 C 671.507812 198.277344 675.902344 203.296875 680.152344 208.445312 C 684.402344 213.589844 688.496094 218.859375 692.433594 224.246094 C 696.375 229.632812 700.152344 235.132812 703.769531 240.742188 C 707.382812 246.351562 710.832031 252.0625 714.113281 257.875 C 717.394531 263.6875 720.503906 269.589844 723.4375 275.585938 C 726.371094 281.578125 729.128906 287.65625 731.707031 293.8125 C 734.28125 299.96875 736.675781 306.195312 738.890625 312.492188 C 741.101562 318.789062 743.125 325.144531 744.964844 331.5625 C 746.800781 337.976562 748.453125 344.441406 749.910156 350.957031 C 751.367188 357.46875 752.636719 364.019531 753.710938 370.605469 C 754.785156 377.195312 755.664062 383.808594 756.347656 390.445312 C 757.035156 397.085938 757.523438 403.738281 757.820312 410.40625 C 758.113281 417.074219 758.214844 423.746094 758.117188 430.417969 C 758.019531 437.089844 757.726562 443.757812 757.238281 450.414062 C 756.75 457.070312 756.066406 463.707031 755.1875 470.320312 C 754.3125 476.9375 753.238281 483.523438 751.972656 490.078125 C 750.710938 496.628906 749.253906 503.140625 747.605469 509.609375 C 745.957031 516.074219 744.125 522.488281 742.097656 528.851562 C 740.074219 535.210938 737.867188 541.503906 735.472656 547.734375 C 733.078125 553.964844 730.503906 560.121094 727.75 566.199219 C 724.996094 572.277344 722.0625 578.273438 718.957031 584.179688 C 715.847656 590.085938 712.570312 595.894531 709.121094 601.609375 C 705.675781 607.324219 702.0625 612.933594 698.285156 618.433594 C 694.503906 623.9375 690.570312 629.324219 686.476562 634.59375 C 682.382812 639.867188 678.136719 645.011719 673.738281 650.035156 C 669.34375 655.054688 664.804688 659.945312 660.121094 664.699219 C 655.4375 669.453125 650.617188 674.066406 645.664062 678.539062 C 640.707031 683.011719 635.625 687.335938 630.417969 691.507812 C 625.210938 695.683594 619.882812 699.699219 614.4375 703.558594 C 608.996094 707.421875 603.441406 711.117188 597.78125 714.652344 C 592.117188 718.1875 586.359375 721.554688 580.5 724.75 C 574.640625 727.945312 568.691406 730.96875 562.65625 733.816406 C 556.617188 736.660156 550.503906 739.328125 544.308594 741.816406 C 538.117188 744.304688 531.855469 746.609375 525.527344 748.726562 Z M 525.527344 748.820312 " fill-opacity="1" fill-rule="evenodd"/></g></svg>