<svg xmlns="http://www.w3.org/2000/svg" xmlns:xlink="http://www.w3.org/1999/xlink" width="1080" zoomAndPan="magnify" viewBox="0 0 810 809.999993" height="1080" preserveAspectRatio="xMidYMid meet" version="1.0"><defs><filter x="0%" y="0%" width="100%" height="100%" id="332a4c5d19"><feColorMatrix values="0 0 0 0 1 0 0 0 0 1 0 0 0 0 1 0 0 0 1 0" color-interpolation-filters="sRGB"/></filter><g/><mask id="2becfebc73"><g filter="url(#332a4c5d19)"><rect x="-81" width="972" fill="#000000" y="-80.999999" height="971.999992" fill-opacity="0.9765"/></g></mask><clipPath id="5d5c4eb867"><path d="M 1 2.152344 L 180.25 2.152344 L 180.25 164.152344 L 1 164.152344 Z M 1 2.152344 " clip-rule="nonzero"/></clipPath><clipPath id="c31636aa48"><rect x="0" width="182" y="0" height="166"/></clipPath><mask id="731209c0a6"><g filter="url(#332a4c5d19)"><rect x="-81" width="972" fill="#000000" y="-80.999999" height="971.999992" fill-opacity="0.9765"/></g></mask><clipPath id="f934450b85"><path d="M 1 2.152344 L 180.25 2.152344 L 180.25 164.152344 L 1 164.152344 Z M 1 2.152344 " clip-rule="nonzero"/></clipPath><clipPath id="5f9e3ee28f"><rect x="0" width="182" y="0" height="166"/></clipPath></defs><g mask="url(#2becfebc73)"><g transform="matrix(1, 0, 0, 1, 92, 294)"><g clip-path="url(#c31636aa48)"><g clip-path="url(#5d5c4eb867)"><path fill="#020201" d="M 30.875 59.433594 L 66.929688 23.332031 L 144.183594 23.332031 L 152.929688 2.175781 L 58.183594 2.175781 C 39.121094 21.261719 20.0625 40.347656 1 59.433594 C 35.859375 94.335938 70.703125 129.226562 105.5625 164.132812 C 130.453125 139.207031 155.359375 114.28125 180.25 89.347656 C 165.3125 74.390625 150.375 59.433594 135.4375 44.476562 L 75.6875 44.476562 L 60.75 59.433594 C 75.6875 74.390625 90.625 89.347656 105.5625 104.304688 L 120.5 89.347656 L 96.816406 65.632812 L 126.691406 65.632812 L 150.375 89.347656 C 135.4375 104.304688 120.5 119.261719 105.5625 134.21875 C 80.671875 109.292969 55.777344 84.371094 30.875 59.433594 Z M 30.875 59.433594 " fill-opacity="1" fill-rule="evenodd"/></g></g></g></g><g mask="url(#731209c0a6)"><g transform="matrix(1, 0, 0, 1, 80, 282)"><g clip-path="url(#5f9e3ee28f)"><g clip-path="url(#f934450b85)"><path fill="#d9d9d9" d="M 30.875 59.433594 L 66.929688 23.332031 L 144.183594 23.332031 L 152.929688 2.175781 L 58.183594 2.175781 C 39.121094 21.261719 20.0625 40.347656 1 59.433594 C 35.859375 94.335938 70.703125 129.226562 105.5625 164.132812 C 130.453125 139.207031 155.359375 114.28125 180.25 89.347656 C 165.3125 74.390625 150.375 59.433594 135.4375 44.476562 L 75.6875 44.476562 L 60.75 59.433594 C 75.6875 74.390625 90.625 89.347656 105.5625 104.304688 L 120.5 89.347656 L 96.816406 65.632812 L 126.691406 65.632812 L 150.375 89.347656 C 135.4375 104.304688 120.5 119.261719 105.5625 134.21875 C 80.671875 109.292969 55.777344 84.371094 30.875 59.433594 Z M 30.875 59.433594 " fill-opacity="1" fill-rule="evenodd"/></g></g></g></g><g fill="#000000" fill-opacity="1"><g transform="translate(272.311503, 415.103177)"><g><path d="M 101.964844 -32.003906 L 101.964844 -88.515625 C 101.964844 -89.027344 101.28125 -89.195312 100.601562 -89.027344 C 93.964844 -85.960938 78.644531 -82.21875 65.367188 -81.027344 C 64.683594 -80.855469 64.683594 -80.003906 65.367188 -79.664062 C 75.070312 -77.109375 76.941406 -70.300781 76.941406 -55.832031 L 76.941406 -21.617188 C 69.449219 -13.957031 63.664062 -11.234375 55.324219 -11.234375 C 44.597656 -11.234375 38.980469 -17.363281 38.980469 -37.789062 L 38.980469 -88.515625 C 38.980469 -88.855469 38.46875 -89.367188 37.789062 -89.027344 C 30.980469 -85.960938 16 -82.386719 2.382812 -81.027344 C 1.703125 -80.855469 1.871094 -79.835938 2.382812 -79.664062 C 12.257812 -76.941406 13.957031 -70.300781 13.957031 -55.832031 L 13.957031 -35.234375 C 13.957031 -10.214844 22.46875 2.214844 41.195312 2.214844 C 56.003906 2.214844 68.941406 -7.488281 77.621094 -19.746094 L 77.960938 -19.746094 C 78.472656 -11.234375 79.324219 -4.253906 81.367188 1.871094 C 81.535156 2.382812 82.046875 2.554688 82.730469 2.214844 C 89.367188 -0.851562 100.433594 -4.085938 113.539062 -5.789062 C 114.390625 -5.957031 114.390625 -6.980469 113.539062 -7.148438 C 103.15625 -10.554688 101.964844 -19.40625 101.964844 -32.003906 Z M 101.964844 -32.003906 "/></g></g></g><g fill="#000000" fill-opacity="1"><g transform="translate(390.438833, 415.103177)"><g><path d="M 49.363281 2.214844 C 66.386719 2.214844 85.113281 -5.445312 85.113281 -27.066406 C 85.113281 -40.34375 73.027344 -48.855469 55.324219 -53.960938 L 43.917969 -57.023438 C 30.46875 -60.941406 24.511719 -63.492188 24.511719 -72.855469 C 24.511719 -80.003906 29.789062 -86.8125 38.980469 -86.8125 C 52.9375 -86.8125 72.003906 -69.449219 78.132812 -51.746094 C 78.300781 -51.40625 78.8125 -51.40625 78.8125 -51.917969 L 72.175781 -90.386719 C 72.003906 -90.898438 71.835938 -90.898438 71.492188 -90.386719 C 69.621094 -88.175781 67.75 -85.960938 63.664062 -85.960938 C 57.535156 -85.960938 49.363281 -89.027344 41.023438 -89.027344 C 25.191406 -89.027344 8 -80.34375 8 -61.109375 C 8 -46.8125 18.554688 -38.640625 35.234375 -33.875 L 46.980469 -30.46875 C 58.558594 -27.234375 68.601562 -24 68.601562 -14.640625 C 68.601562 -6.46875 62.132812 0 50.726562 0 C 34.554688 0 16.683594 -15.660156 8 -37.621094 C 7.660156 -37.960938 6.980469 -38.128906 6.980469 -37.621094 L 14.46875 4.597656 C 14.808594 5.277344 15.148438 5.105469 15.320312 4.597656 C 17.191406 2.214844 19.917969 -0.679688 24.683594 -0.679688 C 31.152344 -0.679688 39.320312 2.214844 49.363281 2.214844 Z M 49.363281 2.214844 "/></g></g></g><g fill="#000000" fill-opacity="1"><g transform="translate(481.332195, 415.103177)"><g><path d="M 75.75 -89.027344 C 55.664062 -89.027344 45.621094 -75.917969 38.300781 -66.558594 L 37.960938 -66.558594 C 37.960938 -72.855469 36.597656 -84.429688 33.875 -89.027344 C 33.535156 -89.539062 33.023438 -89.367188 32.511719 -89.027344 C 27.917969 -86.8125 18.382812 -82.558594 2.382812 -81.027344 C 1.703125 -80.6875 1.871094 -79.835938 2.382812 -79.664062 C 10.382812 -77.621094 13.957031 -71.835938 13.957031 -56.34375 L 13.957031 21.789062 C 13.957031 35.234375 14.296875 41.363281 1.871094 41.703125 C 0.851562 41.703125 0.851562 43.066406 1.871094 43.066406 C 8.679688 43.066406 11.40625 42.554688 14.640625 42.554688 L 37.960938 42.554688 C 42.386719 42.554688 46.128906 43.066406 55.152344 43.066406 C 56.683594 43.066406 56.683594 41.703125 55.152344 41.703125 C 38.300781 41.363281 38.8125 35.234375 38.8125 21.789062 L 38.8125 -3.234375 C 43.917969 -0.679688 52.429688 2.214844 60.089844 2.214844 C 83.921875 2.214844 110.132812 -17.703125 110.132812 -49.363281 C 110.132812 -77.28125 90.898438 -89.027344 75.75 -89.027344 Z M 59.578125 -76.089844 C 75.917969 -76.089844 84.601562 -59.917969 84.601562 -35.234375 C 84.601562 -15.660156 78.132812 -0.511719 62.472656 -0.511719 C 51.066406 -0.511719 41.363281 -8.679688 38.8125 -20.257812 L 38.8125 -64.683594 C 42.894531 -69.28125 49.195312 -76.089844 59.578125 -76.089844 Z M 59.578125 -76.089844 "/></g></g></g><g fill="#000000" fill-opacity="1"><g transform="translate(595.374439, 415.103177)"><g><path d="M 16.851562 0 L 40.003906 0 C 44.429688 0 48.171875 0.511719 57.367188 0.511719 C 58.898438 0.511719 58.898438 -0.851562 57.367188 -0.851562 C 40.511719 -1.191406 41.023438 -7.320312 41.023438 -20.765625 L 41.023438 -63.492188 C 44.085938 -72.175781 49.707031 -75.917969 50.898438 -75.917969 L 51.238281 -75.917969 C 57.535156 -71.152344 65.875 -66.046875 72.683594 -66.046875 C 79.664062 -66.046875 85.28125 -71.152344 85.28125 -76.769531 C 85.28125 -82.730469 79.324219 -89.027344 68.257812 -89.027344 C 56.34375 -89.027344 43.578125 -76.941406 40.171875 -66.558594 L 40.003906 -66.558594 C 39.492188 -75.75 36.9375 -83.238281 33.703125 -89.027344 C 33.363281 -89.367188 32.851562 -89.367188 32.511719 -89.027344 C 24.511719 -84.941406 11.40625 -82.21875 4.425781 -81.027344 C 3.746094 -80.855469 3.574219 -80.003906 4.425781 -79.664062 C 13.617188 -76.941406 16 -69.449219 16 -57.367188 L 16 -20.765625 C 16 -7.320312 16.339844 -1.191406 4.085938 -0.851562 C 2.894531 -0.851562 2.894531 0.511719 4.085938 0.511719 C 10.722656 0.511719 13.449219 0 16.851562 0 Z M 16.851562 0 "/></g></g></g><g fill="#000000" fill-opacity="1"><g transform="translate(680.821007, 415.103177)"><g><path d="M 27.066406 -97.878906 C 36.257812 -97.878906 42.214844 -103.324219 42.214844 -111.496094 C 42.214844 -119.496094 35.917969 -125.113281 27.066406 -125.113281 C 18.042969 -125.113281 11.914062 -119.15625 11.914062 -111.496094 C 11.914062 -103.664062 18.214844 -97.878906 27.066406 -97.878906 Z M 16.683594 0 L 40.171875 0 C 43.40625 0 46.128906 0.511719 52.9375 0.511719 C 53.960938 0.511719 53.960938 -0.851562 52.9375 -0.851562 C 40.511719 -1.191406 40.855469 -7.320312 40.855469 -20.765625 L 40.855469 -88.347656 C 40.855469 -88.855469 40.171875 -89.027344 39.660156 -89.027344 C 32.171875 -85.792969 16.171875 -81.878906 4.425781 -81.027344 C 3.574219 -80.6875 3.746094 -79.835938 4.253906 -79.664062 C 14.640625 -75.578125 16 -70.644531 16 -49.195312 L 16 -20.765625 C 16 -7.320312 16.339844 -1.191406 3.914062 -0.851562 C 2.894531 -0.851562 2.894531 0.511719 3.914062 0.511719 C 10.722656 0.511719 13.449219 0 16.683594 0 Z M 16.683594 0 "/></g></g></g><g fill="#d9d9d9" fill-opacity="1"><g transform="translate(260.266162, 404.000743)"><g><path d="M 101.976562 -32.003906 L 101.976562 -88.527344 C 101.976562 -89.035156 101.292969 -89.207031 100.613281 -89.035156 C 93.972656 -85.972656 78.652344 -82.226562 65.375 -81.035156 C 64.691406 -80.863281 64.691406 -80.015625 65.375 -79.671875 C 75.078125 -77.121094 76.949219 -70.308594 76.949219 -55.839844 L 76.949219 -21.621094 C 69.457031 -13.960938 63.671875 -11.234375 55.328125 -11.234375 C 44.605469 -11.234375 38.984375 -17.363281 38.984375 -37.792969 L 38.984375 -88.527344 C 38.984375 -88.867188 38.476562 -89.378906 37.792969 -89.035156 C 30.984375 -85.972656 16.003906 -82.398438 2.382812 -81.035156 C 1.703125 -80.863281 1.871094 -79.84375 2.382812 -79.671875 C 12.257812 -76.949219 13.960938 -70.308594 13.960938 -55.839844 L 13.960938 -35.238281 C 13.960938 -10.214844 22.472656 2.214844 41.199219 2.214844 C 56.011719 2.214844 68.949219 -7.492188 77.628906 -19.75 L 77.972656 -19.75 C 78.480469 -11.234375 79.332031 -4.257812 81.375 1.871094 C 81.546875 2.382812 82.058594 2.554688 82.738281 2.214844 C 89.378906 -0.851562 100.441406 -4.085938 113.550781 -5.789062 C 114.402344 -5.957031 114.402344 -6.980469 113.550781 -7.148438 C 103.167969 -10.554688 101.976562 -19.40625 101.976562 -32.003906 Z M 101.976562 -32.003906 "/></g></g></g><g fill="#d9d9d9" fill-opacity="1"><g transform="translate(378.411469, 404.000743)"><g><path d="M 49.371094 2.214844 C 66.394531 2.214844 85.121094 -5.449219 85.121094 -27.070312 C 85.121094 -40.347656 73.035156 -48.859375 55.328125 -53.96875 L 43.921875 -57.03125 C 30.472656 -60.945312 24.515625 -63.5 24.515625 -72.863281 C 24.515625 -80.015625 29.792969 -86.824219 38.984375 -86.824219 C 52.945312 -86.824219 72.011719 -69.457031 78.140625 -51.753906 C 78.3125 -51.414062 78.824219 -51.414062 78.824219 -51.925781 L 72.183594 -90.398438 C 72.011719 -90.910156 71.84375 -90.910156 71.5 -90.398438 C 69.628906 -88.1875 67.757812 -85.972656 63.671875 -85.972656 C 57.542969 -85.972656 49.371094 -89.035156 41.027344 -89.035156 C 25.195312 -89.035156 8 -80.355469 8 -61.117188 C 8 -46.816406 18.554688 -38.644531 35.238281 -33.878906 L 46.988281 -30.472656 C 58.5625 -27.238281 68.609375 -24.003906 68.609375 -14.640625 C 68.609375 -6.46875 62.136719 0 50.730469 0 C 34.558594 0 16.683594 -15.664062 8 -37.625 C 7.660156 -37.964844 6.980469 -38.132812 6.980469 -37.625 L 14.46875 4.597656 C 14.8125 5.277344 15.152344 5.105469 15.320312 4.597656 C 17.195312 2.214844 19.917969 -0.679688 24.683594 -0.679688 C 31.15625 -0.679688 39.324219 2.214844 49.371094 2.214844 Z M 49.371094 2.214844 "/></g></g></g><g fill="#d9d9d9" fill-opacity="1"><g transform="translate(469.318672, 404.000743)"><g><path d="M 75.757812 -89.035156 C 55.667969 -89.035156 45.625 -75.929688 38.304688 -66.566406 L 37.964844 -66.566406 C 37.964844 -72.863281 36.601562 -84.441406 33.878906 -89.035156 C 33.539062 -89.546875 33.027344 -89.378906 32.515625 -89.035156 C 27.917969 -86.824219 18.386719 -82.566406 2.382812 -81.035156 C 1.703125 -80.695312 1.871094 -79.84375 2.382812 -79.671875 C 10.386719 -77.628906 13.960938 -71.84375 13.960938 -56.351562 L 13.960938 21.792969 C 13.960938 35.238281 14.300781 41.367188 1.871094 41.710938 C 0.851562 41.710938 0.851562 43.070312 1.871094 43.070312 C 8.683594 43.070312 11.40625 42.5625 14.640625 42.5625 L 37.964844 42.5625 C 42.390625 42.5625 46.136719 43.070312 55.160156 43.070312 C 56.691406 43.070312 56.691406 41.710938 55.160156 41.710938 C 38.304688 41.367188 38.816406 35.238281 38.816406 21.792969 L 38.816406 -3.234375 C 43.921875 -0.679688 52.433594 2.214844 60.09375 2.214844 C 83.929688 2.214844 110.148438 -17.707031 110.148438 -49.371094 C 110.148438 -77.289062 90.910156 -89.035156 75.757812 -89.035156 Z M 59.585938 -76.097656 C 75.929688 -76.097656 84.609375 -59.925781 84.609375 -35.238281 C 84.609375 -15.664062 78.140625 -0.511719 62.480469 -0.511719 C 51.074219 -0.511719 41.367188 -8.683594 38.816406 -20.257812 L 38.816406 -64.691406 C 42.902344 -69.289062 49.199219 -76.097656 59.585938 -76.097656 Z M 59.585938 -76.097656 "/></g></g></g><g fill="#d9d9d9" fill-opacity="1"><g transform="translate(583.378267, 404.000743)"><g><path d="M 16.855469 0 L 40.007812 0 C 44.433594 0 48.179688 0.511719 57.371094 0.511719 C 58.902344 0.511719 58.902344 -0.851562 57.371094 -0.851562 C 40.519531 -1.191406 41.027344 -7.320312 41.027344 -20.769531 L 41.027344 -63.5 C 44.09375 -72.183594 49.710938 -75.929688 50.902344 -75.929688 L 51.242188 -75.929688 C 57.542969 -71.160156 65.882812 -66.054688 72.695312 -66.054688 C 79.671875 -66.054688 85.292969 -71.160156 85.292969 -76.78125 C 85.292969 -82.738281 79.332031 -89.035156 68.265625 -89.035156 C 56.351562 -89.035156 43.582031 -76.949219 40.175781 -66.566406 L 40.007812 -66.566406 C 39.496094 -75.757812 36.941406 -83.25 33.707031 -89.035156 C 33.367188 -89.378906 32.855469 -89.378906 32.515625 -89.035156 C 24.515625 -84.949219 11.40625 -82.226562 4.425781 -81.035156 C 3.746094 -80.863281 3.574219 -80.015625 4.425781 -79.671875 C 13.621094 -76.949219 16.003906 -69.457031 16.003906 -57.371094 L 16.003906 -20.769531 C 16.003906 -7.320312 16.34375 -1.191406 4.085938 -0.851562 C 2.894531 -0.851562 2.894531 0.511719 4.085938 0.511719 C 10.726562 0.511719 13.449219 0 16.855469 0 Z M 16.855469 0 "/></g></g></g><g fill="#d9d9d9" fill-opacity="1"><g transform="translate(668.837842, 404.000743)"><g><path d="M 27.070312 -97.890625 C 36.261719 -97.890625 42.21875 -103.335938 42.21875 -111.507812 C 42.21875 -119.511719 35.921875 -125.128906 27.070312 -125.128906 C 18.046875 -125.128906 11.917969 -119.167969 11.917969 -111.507812 C 11.917969 -103.675781 18.214844 -97.890625 27.070312 -97.890625 Z M 16.683594 0 L 40.175781 0 C 43.410156 0 46.136719 0.511719 52.945312 0.511719 C 53.96875 0.511719 53.96875 -0.851562 52.945312 -0.851562 C 40.519531 -1.191406 40.859375 -7.320312 40.859375 -20.769531 L 40.859375 -88.355469 C 40.859375 -88.867188 40.175781 -89.035156 39.667969 -89.035156 C 32.175781 -85.800781 16.171875 -81.886719 4.425781 -81.035156 C 3.574219 -80.695312 3.746094 -79.84375 4.257812 -79.671875 C 14.640625 -75.585938 16.003906 -70.652344 16.003906 -49.199219 L 16.003906 -20.769531 C 16.003906 -7.320312 16.34375 -1.191406 3.914062 -0.851562 C 2.894531 -0.851562 2.894531 0.511719 3.914062 0.511719 C 10.726562 0.511719 13.449219 0 16.683594 0 Z M 16.683594 0 "/></g></g></g></svg>