<svg xmlns="http://www.w3.org/2000/svg" width="100" height="100" id="neon"><path fill="#2D2D37" d="M49.962 4.419c-25.35 0-45.974 20.624-45.974 45.974s20.624 45.974 45.974 45.974 45.974-20.624 45.974-45.974S75.312 4.419 49.962 4.419zm0 89.948c-24.247 0-43.974-19.727-43.974-43.974S25.715 6.419 49.962 6.419s43.974 19.727 43.974 43.974-19.727 43.974-43.974 43.974z"></path><path fill="#2D2D37" d="M71.431 29.086a1.59 1.59 0 0 0-1.537-.804c-6.74.654-9.942 2.821-11.39 4.336-5.496-1.312-11.588-1.312-17.084 0-1.445-1.516-4.647-3.682-11.391-4.337a1.59 1.59 0 0 0-1.539.81c-.275.5-2.569 4.931-.789 10.977-3.029 3.196-4.627 6.937-4.627 10.854 0 5.139.308 10.508 3.989 14.714 4.049 4.626 11.539 6.875 22.898 6.875 11.358 0 18.85-2.249 22.9-6.875 3.68-4.206 3.987-9.575 3.987-14.714 0-3.916-1.598-7.656-4.627-10.854 1.783-6.045-.511-10.477-.79-10.982zM37.529 66.84c-3.197-1.992-4.752-5.406-4.752-10.435 0-5.88 2.487-6.367 5.258-6.367 1.565 0 3.364.254 5.27.522 2.171.306 4.415.622 6.657.622 2.244 0 4.487-.316 6.657-.622 1.905-.269 3.704-.522 5.27-.522 2.771 0 5.257.487 5.257 6.367 0 5.03-1.554 8.443-4.751 10.435-2.718 1.694-6.668 2.483-12.433 2.483-5.764 0-9.714-.789-12.433-2.483zM74.85 50.922c0 4.759-.27 9.713-3.492 13.397-2.048 2.338-5.149 4.002-9.377 5.012a13.64 13.64 0 0 0 1.473-.794c3.83-2.387 5.692-6.355 5.692-12.132 0-7.416-3.878-8.367-7.257-8.367-1.705 0-3.572.263-5.549.542-2.101.296-4.273.602-6.378.602-2.103 0-4.276-.306-6.378-.602-1.977-.279-3.844-.542-5.549-.542-3.379 0-7.258.951-7.258 8.367 0 5.776 1.862 9.745 5.694 12.132.461.288.951.552 1.473.794-4.228-1.01-7.329-2.674-9.376-5.012-3.225-3.684-3.494-8.638-3.494-13.397 0-3.553 1.544-6.968 4.465-9.874a1 1 0 0 0 .244-1.025c-1.646-4.939-.126-8.745.336-9.723 6.825.719 9.382 3.07 10.169 4.058a.997.997 0 0 0 1.032.345c5.529-1.425 11.752-1.425 17.283 0a1 1 0 0 0 1.031-.345c.79-.989 3.355-3.348 10.17-4.06.463.979 1.982 4.786.337 9.725a1 1 0 0 0 .243 1.025c2.922 2.908 4.466 6.322 4.466 9.874z"></path><path fill="#2D2D37" d="M39.629 53.208c-2.074 0-3.698 2.117-3.698 4.819s1.624 4.819 3.698 4.819 3.699-2.117 3.699-4.819-1.625-4.819-3.699-4.819zm0 7.638c-.921 0-1.698-1.291-1.698-2.819s.777-2.819 1.698-2.819 1.699 1.291 1.699 2.819-.778 2.819-1.699 2.819zm20.666-7.638c-2.074 0-3.698 2.117-3.698 4.819s1.624 4.819 3.698 4.819 3.699-2.117 3.699-4.819-1.625-4.819-3.699-4.819zm0 7.638c-.921 0-1.698-1.291-1.698-2.819s.777-2.819 1.698-2.819 1.699 1.291 1.699 2.819-.778 2.819-1.699 2.819z"></path></svg>