<svg xmlns="http://www.w3.org/2000/svg" width="100" height="100" id="neon"><path fill="#987160" d="M49.978 3.911C24.625 3.911 4 24.537 4 49.889s20.625 45.978 45.978 45.978 45.978-20.625 45.978-45.978S75.33 3.911 49.978 3.911zm0 89.955C25.728 93.866 6 74.138 6 49.889S25.728 5.911 49.978 5.911s43.978 19.728 43.978 43.978-19.729 43.977-43.978 43.977z"></path><path fill="#987160" d="M56.388 51.088c0-3.537-2.877-6.414-6.414-6.414s-6.414 2.877-6.414 6.414 2.877 6.414 6.414 6.414 6.414-2.877 6.414-6.414zm-10.827 0c0-2.434 1.98-4.414 4.414-4.414s4.414 1.98 4.414 4.414c0 2.434-1.98 4.414-4.414 4.414s-4.414-1.98-4.414-4.414zm19.115-22.28H35.272a6.423 6.423 0 0 0-6.417 6.417v6.142a1 1 0 0 0 1 1h14.377c.179 0 .355-.048.509-.139 3.162-1.871 7.303-1.871 10.465 0 .154.091.33.139.509.139h14.377a1 1 0 0 0 1-1v-6.142a6.423 6.423 0 0 0-6.416-6.417zm4.417 11.558h-13.11c-3.661-2.055-8.357-2.055-12.019 0h-13.11v-5.142a4.422 4.422 0 0 1 4.417-4.417h29.404a4.421 4.421 0 0 1 4.417 4.417v5.142z"></path><path fill="#987160" d="M64.676 24.939H35.272c-5.671 0-10.286 4.614-10.286 10.285v29.405c0 5.672 4.614 10.286 10.286 10.286h29.404c5.671 0 10.286-4.614 10.286-10.286V35.225c0-5.672-4.614-10.286-10.286-10.286zm8.286 39.69c0 4.569-3.717 8.286-8.286 8.286H35.272c-4.569 0-8.286-3.717-8.286-8.286V35.225c0-4.568 3.717-8.285 8.286-8.285h29.404c4.569 0 8.286 3.717 8.286 8.285v29.404z"></path><path fill="#987160" d="M70.093 44.235h-10.46a1 1 0 0 0-.855 1.519 10.274 10.274 0 0 1 1.488 5.334c0 5.674-4.617 10.291-10.292 10.291s-10.292-4.617-10.292-10.291c0-1.885.515-3.73 1.488-5.334a1 1 0 0 0-.855-1.519h-10.46a1 1 0 0 0-1 1v19.394a6.424 6.424 0 0 0 6.417 6.417h29.404a6.423 6.423 0 0 0 6.417-6.417V45.235a1 1 0 0 0-1-1zm-1 20.394a4.422 4.422 0 0 1-4.417 4.417H35.272a4.421 4.421 0 0 1-4.417-4.417V46.235h7.823a12.297 12.297 0 0 0-.996 4.853c0 6.777 5.514 12.291 12.292 12.291s12.292-5.514 12.292-12.291c0-1.677-.341-3.328-.996-4.853h7.823v18.394zm-4.03-33.113h-2.029a3.325 3.325 0 0 0-3.322 3.321v2.029a3.325 3.325 0 0 0 3.322 3.321h2.029a3.325 3.325 0 0 0 3.322-3.321v-2.029a3.325 3.325 0 0 0-3.322-3.321zm1.322 5.351c0 .729-.593 1.321-1.322 1.321h-2.029a1.323 1.323 0 0 1-1.322-1.321v-2.029c0-.729.593-1.321 1.322-1.321h2.029c.729 0 1.322.593 1.322 1.321v2.029z"></path></svg>